<svg width="24" height="24" viewBox="0 0 24 24" fill="none" xmlns="http://www.w3.org/2000/svg">
<g clip-path="url(#clip0)">
<path d="M22.8997 17.1289V15.2243C22.8717 10.1989 19.7349 5.77533 15.1578 4.32746C15.5319 2.37032 14.3256 0.463688 12.4671 0.0722593C10.6087 -0.323378 8.79421 0.945607 8.42612 2.90064C8.3141 3.48358 8.3421 4.08335 8.50214 4.65365C6.42163 5.31656 4.6572 6.57291 3.35688 8.3133C1.91853 10.2452 1.16234 12.6422 1.16234 15.2538V17.1099C0.442167 17.5308 -0.00594193 18.3263 5.95386e-05 19.1933V21.6198C0.00606101 22.935 1.02431 23.9999 2.27262 23.9999H21.7154C22.9657 24.0125 23.9899 22.9477 23.9999 21.6324V19.1996C24.0059 18.3494 23.5858 17.5645 22.8997 17.1289ZM9.63042 2.70914C9.9785 1.77266 10.8367 1.16237 11.7869 1.16237C13.0713 1.16237 14.1095 2.25668 14.1155 3.61195C14.1155 3.9192 14.0615 4.22855 13.9495 4.51686C13.4754 5.77533 12.119 6.38562 10.9287 5.88476C9.73444 5.386 9.1543 3.96129 9.62842 2.70914H9.63042ZM2.26861 15.2538C2.26861 10.6408 4.89526 6.94119 9.00026 5.71219C10.1005 7.33473 12.2471 7.70721 13.7834 6.54977C14.1835 6.25304 14.5136 5.86371 14.7577 5.42178C16.6881 6.01944 18.3986 7.2253 19.6529 8.87308C21.0252 10.6745 21.7774 12.9136 21.7874 15.2243V16.7963C21.7334 16.7963 21.7334 16.7795 21.7154 16.7795H2.28462C2.27862 16.7795 2.26861 16.7963 2.26861 16.7963V15.2538ZM22.8997 21.6134C22.8937 22.289 22.3735 22.8298 21.7334 22.8298H2.28462C1.64446 22.8424 1.11833 22.3016 1.10633 21.6261V19.187C1.10633 18.6525 1.43241 18.1811 1.91453 18.019L1.91853 18.0064C2.03656 17.9601 2.16259 17.937 2.28462 17.937H21.7214C21.8494 17.937 21.9754 17.9601 22.0915 18.0127C22.0975 18.0127 22.0975 18.019 22.1035 18.019C22.5796 18.1874 22.8997 18.6588 22.8997 19.187V21.6134Z" fill="#CFD3D7" stroke="#CFD3D7" stroke-width="0.5"/>
</g>
<defs>
<clipPath id="clip0">
<rect width="24" height="24" fill="white"/>
</clipPath>
</defs>
</svg>

