<svg width="96" height="95" viewBox="0 0 96 95" fill="none" xmlns="http://www.w3.org/2000/svg">
<path fill-rule="evenodd" clip-rule="evenodd" d="M47.6927 94.879C73.865 94.879 95.0818 73.6622 95.0818 47.4899C95.0818 21.3176 73.865 0.10083 47.6927 0.10083C21.5205 0.10083 0.303711 21.3176 0.303711 47.4899C0.303711 73.6622 21.5205 94.879 47.6927 94.879ZM47.6931 87.8676C69.993 87.8676 88.0708 69.7899 88.0708 47.4899C88.0708 25.1899 69.993 7.11224 47.6931 7.11224C25.3932 7.11224 7.31543 25.1899 7.31543 47.4899C7.31543 69.7899 25.3932 87.8676 47.6931 87.8676Z" fill="#CFD3D7" fill-opacity="0.1"/>
<path fill-rule="evenodd" clip-rule="evenodd" d="M69.3384 31.2242L63.9579 25.8438L47.6923 42.1094L31.4268 25.8439L26.0463 31.2243L42.3118 47.4899L26.0463 63.7554L31.4267 69.1359L47.6923 52.8703L63.958 69.136L69.3385 63.7556L53.0728 47.4899L69.3384 31.2242Z" fill="#C4C4C4" fill-opacity="0.1"/>
</svg>
