<?xml version="1.0" encoding="UTF-8"?>
<svg width="83px" height="94px" viewBox="0 0 83 94" version="1.1" xmlns="http://www.w3.org/2000/svg" xmlns:xlink="http://www.w3.org/1999/xlink">
    <!-- Generator: sketchtool 52.6 (67491) - http://www.bohemiancoding.com/sketch -->
    <title>AD82D090-4C2A-4C4C-875E-7551A78CFFF8</title>
    <desc>Created with sketchtool.</desc>
    <defs>
        <linearGradient x1="50%" y1="-2.48949813e-15%" x2="50%" y2="100%" id="linearGradient-1">
            <stop stop-color="#CCD2DC" offset="0%"></stop>
            <stop stop-color="#BDC3CE" offset="100%"></stop>
        </linearGradient>
        <path d="M80.8206287,52.0147289 L80.8206287,39.4664285 C80.8206287,35.4723501 78.1751779,32.0712168 74.5048982,30.8457968 C73.1676015,13.6179733 58.3861045,-1.56319402e-13 40.4103144,-1.56319402e-13 C22.4345242,-1.56319402e-13 7.65302719,13.6179733 6.31573052,30.8457968 C2.64545087,32.0712168 0,35.4723501 0,39.4664285 L0,52.0147289 C0,56.0088073 2.64545087,59.4099406 6.31573052,60.6353606 C7.65302719,77.8631841 22.4345242,91.4811574 40.4103144,91.4811574 C58.3861045,91.4811574 73.1676015,77.8631841 74.5048982,60.6353606 C78.1751779,59.4099406 80.8206287,56.0088073 80.8206287,52.0147289 Z M71.4951716,55.050608 L71.422565,55.050608 C69.7458952,55.050608 68.3866858,56.4098174 68.3866858,58.0864871 C68.3866858,73.1520372 55.8361747,85.4093992 40.4103144,85.4093992 C24.984454,85.4093992 12.4339429,73.1520372 12.4339429,58.0864871 L12.4339429,58.0864871 C12.4339429,56.4098174 11.0747335,55.050608 9.39806376,55.050608 L9.32545716,55.050608 C7.61174256,55.050608 6.21697144,53.6884153 6.21697144,52.0147289 L6.21697144,39.4664285 C6.21697144,37.7927421 7.61174256,36.4305494 9.32545716,36.4305494 L9.39806376,36.4305494 C11.0747335,36.4305494 12.4339429,35.07134 12.4339429,33.3946703 C12.4339429,18.3291202 24.984454,6.07175824 40.4103144,6.07175824 C55.8361747,6.07175824 68.3866858,18.3291202 68.3866858,33.3946703 L68.3866858,33.3946703 C68.3866858,35.07134 69.7458952,36.4305494 71.422565,36.4305494 L71.4951716,36.4305494 C73.2088862,36.4305494 74.6036573,37.7927421 74.6036573,39.4664285 L74.6036573,52.0147289 C74.6036573,53.6884153 73.2088862,55.050608 71.4951716,55.050608 Z" id="path-2"></path>
        <filter x="-1.9%" y="-1.6%" width="103.7%" height="103.3%" filterUnits="objectBoundingBox" id="filter-3">
            <feOffset dx="0" dy="-1" in="SourceAlpha" result="shadowOffsetInner1"></feOffset>
            <feComposite in="shadowOffsetInner1" in2="SourceAlpha" operator="arithmetic" k2="-1" k3="1" result="shadowInnerInner1"></feComposite>
            <feColorMatrix values="0 0 0 0 0.584313725   0 0 0 0 0.615686275   0 0 0 0 0.670588235  0 0 0 1 0" type="matrix" in="shadowInnerInner1"></feColorMatrix>
        </filter>
        <path d="M31.3645732,36.592463 L24.9491552,36.592463 C23.2650336,36.592463 21.8997833,37.9577133 21.8997833,39.6418349 L21.8997833,39.6418349 C21.8997833,41.3259565 23.2650336,42.6912068 24.9491552,42.6912068 L31.3645732,42.6912068 C33.0486948,42.6912068 34.4139451,41.3259565 34.4139451,39.6418349 L34.4139451,39.6418349 C34.4139451,37.9577133 33.0486948,36.592463 31.3645732,36.592463 Z" id="path-4"></path>
        <filter x="-12.0%" y="-24.6%" width="124.0%" height="149.2%" filterUnits="objectBoundingBox" id="filter-5">
            <feOffset dx="0" dy="-1" in="SourceAlpha" result="shadowOffsetInner1"></feOffset>
            <feComposite in="shadowOffsetInner1" in2="SourceAlpha" operator="arithmetic" k2="-1" k3="1" result="shadowInnerInner1"></feComposite>
            <feColorMatrix values="0 0 0 0 0.584313725   0 0 0 0 0.615686275   0 0 0 0 0.670588235  0 0 0 1 0" type="matrix" in="shadowInnerInner1"></feColorMatrix>
        </filter>
        <path d="M49.4573732,42.6899419 L55.8726599,42.6925154 C57.5554271,42.6931904 58.9201266,41.3295853 58.9208017,39.6468181 C58.920802,39.6459937 58.920802,39.6451693 58.9208016,39.6443449 L58.9208016,39.6443449 C58.92011,37.9598109 57.5546898,36.5944036 55.8701558,36.5937278 L49.4548692,36.5911544 C47.772102,36.5904793 46.4074024,37.9540844 46.4067274,39.6368516 C46.4067271,39.637676 46.4067271,39.6385005 46.4067274,39.6393249 L46.4067274,39.6393249 C46.407419,41.3238588 47.7728393,42.6892662 49.4573732,42.6899419 Z" id="path-6"></path>
        <filter x="-12.0%" y="-24.6%" width="124.0%" height="149.2%" filterUnits="objectBoundingBox" id="filter-7">
            <feOffset dx="0" dy="-1" in="SourceAlpha" result="shadowOffsetInner1"></feOffset>
            <feComposite in="shadowOffsetInner1" in2="SourceAlpha" operator="arithmetic" k2="-1" k3="1" result="shadowInnerInner1"></feComposite>
            <feColorMatrix values="0 0 0 0 0.584313725   0 0 0 0 0.615686275   0 0 0 0 0.670588235  0 0 0 1 0" type="matrix" in="shadowInnerInner1"></feColorMatrix>
        </filter>
        <rect id="path-8" x="34.8496749" y="59.970981" width="12.121279" height="6.09874383"></rect>
        <filter x="-12.4%" y="-24.6%" width="124.7%" height="149.2%" filterUnits="objectBoundingBox" id="filter-9">
            <feOffset dx="0" dy="-1" in="SourceAlpha" result="shadowOffsetInner1"></feOffset>
            <feComposite in="shadowOffsetInner1" in2="SourceAlpha" operator="arithmetic" k2="-1" k3="1" result="shadowInnerInner1"></feComposite>
            <feColorMatrix values="0 0 0 0 0.584313725   0 0 0 0 0.615686275   0 0 0 0 0.670588235  0 0 0 1 0" type="matrix" in="shadowInnerInner1"></feColorMatrix>
        </filter>
    </defs>
    <g id="диз" stroke="none" stroke-width="1" fill="none" fill-rule="evenodd" opacity="0.123186384">
        <g id="ui" transform="translate(-1437.000000, -712.000000)">
            <g id="img_default_img" transform="translate(1438.000000, 713.000000)">
                <g id="Shape">
                    <use fill="url(#linearGradient-1)" fill-rule="evenodd" xlink:href="#path-2"></use>
                    <use fill="black" fill-opacity="1" filter="url(#filter-3)" xlink:href="#path-2"></use>
                    <path stroke-opacity="0.1" stroke="#000000" stroke-width="1" d="M74.9765595,60.999195 C73.4522401,78.4249464 58.4395064,91.9811574 40.4103144,91.9811574 C22.3811223,91.9811574 7.36838864,78.4249464 5.84406918,60.999195 C2.069799,59.5978993 -0.5,56.0428612 -0.5,52.0147289 L-0.5,39.4664285 C-0.5,35.4382962 2.069799,31.8832581 5.84406918,30.4819624 C7.36838864,13.056211 22.3811223,-0.5 40.4103144,-0.5 C58.4395064,-0.5 73.4522401,13.056211 74.9765595,30.4819624 C78.7508297,31.8832581 81.3206287,35.4382962 81.3206287,39.4664285 L81.3206287,52.0147289 C81.3206287,56.0428612 78.7508297,59.5978993 74.9765595,60.999195 Z M71.4951716,54.550608 C72.9353541,54.550608 74.1036573,53.4095935 74.1036573,52.0147289 L74.1036573,39.4664285 C74.1036573,38.0715639 72.9353541,36.9305494 71.4951716,36.9305494 L71.422565,36.9305494 C69.4697528,36.9305494 67.8866858,35.3474824 67.8866858,33.3946703 C67.8866858,18.607942 55.5626427,6.57175824 40.4103144,6.57175824 C25.2579861,6.57175824 12.9339429,18.607942 12.9339429,33.3946703 C12.9339429,35.3474824 11.3508759,36.9305494 9.39806376,36.9305494 L9.32545716,36.9305494 C7.88527464,36.9305494 6.71697144,38.0715639 6.71697144,39.4664285 L6.71697144,52.0147289 C6.71697144,53.4095935 7.88527464,54.550608 9.32545716,54.550608 L9.39806376,54.550608 C11.3508759,54.550608 12.9339429,56.133675 12.9339429,58.0864871 C12.9339429,72.8732154 25.2579861,84.9093992 40.4103144,84.9093992 C55.5626427,84.9093992 67.8866858,72.8732154 67.8866858,58.0864871 C67.8866858,56.133675 69.4697528,54.550608 71.422565,54.550608 L71.4951716,54.550608 Z"></path>
                </g>
                <g id="Path">
                    <use fill="url(#linearGradient-1)" fill-rule="evenodd" xlink:href="#path-4"></use>
                    <use fill="black" fill-opacity="1" filter="url(#filter-5)" xlink:href="#path-4"></use>
                    <path stroke-opacity="0.1" stroke="#000000" stroke-width="1" d="M31.3645732,36.092463 C33.3248372,36.092463 34.9139451,37.6815709 34.9139451,39.6418349 C34.9139451,41.6020989 33.3248372,43.1912068 31.3645732,43.1912068 L24.9491552,43.1912068 C22.9888912,43.1912068 21.3997833,41.6020989 21.3997833,39.6418349 C21.3997833,37.6815709 22.9888912,36.092463 24.9491552,36.092463 L31.3645732,36.092463 Z"></path>
                </g>
                <g id="Path" transform="translate(52.663765, 39.641835) rotate(-1.000000) translate(-52.663765, -39.641835) ">
                    <use fill="url(#linearGradient-1)" fill-rule="evenodd" xlink:href="#path-6"></use>
                    <use fill="black" fill-opacity="1" filter="url(#filter-7)" xlink:href="#path-6"></use>
                    <path stroke-opacity="0.1" stroke="#000000" stroke-width="1" d="M49.4571726,43.1899419 C47.4966548,43.1891554 45.9075324,41.600048 45.9067274,39.6395302 C45.906727,39.6380906 45.906727,39.6380906 45.9067274,39.6366511 C45.9075132,37.6777415 47.4961602,36.0903686 49.4550697,36.0911544 L55.8703564,36.0937279 C57.8308742,36.0945143 59.4199967,37.6836218 59.4208016,39.6441396 C59.420802,39.6455791 59.420802,39.6455791 59.4208016,39.6470187 C59.4200158,41.6059282 57.8313688,43.1933011 55.8724593,43.1925153 L49.4571726,43.1899419 Z"></path>
                </g>
                <g id="Rectangle">
                    <use fill="url(#linearGradient-1)" fill-rule="evenodd" xlink:href="#path-8"></use>
                    <use fill="black" fill-opacity="1" filter="url(#filter-9)" xlink:href="#path-8"></use>
                    <rect stroke-opacity="0.1" stroke="#000000" stroke-width="1" x="34.3496749" y="59.470981" width="13.121279" height="7.09874383"></rect>
                </g>
            </g>
        </g>
    </g>
</svg>