<svg width="24" height="24" viewBox="0 0 24 24" fill="none" xmlns="http://www.w3.org/2000/svg">
    <path d="M11.0006 15.9343C7.092 15.4029 4.26 11.9366 4.524 8.00058C4.78629 4.06287 8.05543 1.00458 12 0.999438C15.9497 0.99601 19.2257 4.05772 19.4914 7.99887C19.7537 11.9417 16.9149 15.4114 12.9994 15.9343V18H18V20.0006H12.9994V24H11.0006V20.0006H6V18H11.0006V15.9343ZM12 14.0006C15.0377 14.0006 17.4994 11.5372 17.4994 8.49944C17.4994 5.46172 15.0377 3.00001 12 3.00001C8.96229 3.00001 6.50057 5.46172 6.50057 8.49944C6.50057 11.5372 8.96229 14.0006 12 14.0006Z" fill="#CFD3D7"/>
</svg>
