<svg width="24" height="24" viewBox="0 0 24 24" fill="none" xmlns="http://www.w3.org/2000/svg">
<path fill-rule="evenodd" clip-rule="evenodd" d="M23.4614 13.4244L19.5344 5.20038C19.1734 4.46632 18.4105 4.00002 17.5708 4.00002H15.8167C15.5157 4.00002 15.2707 4.23681 15.2707 4.5319V5.59383C15.2707 5.88709 15.5138 6.1257 15.8167 6.1257H17.5727L19.6335 10.4918C17.3202 10.0073 14.9528 11.051 13.799 13.0638C13.2679 12.7067 12.6414 12.5119 11.9981 12.4991C11.3436 12.5064 10.7078 12.7067 10.1767 13.0747C9.02478 11.0692 6.67041 10.0237 4.36092 10.4918L6.42543 6.1257H8.18326C8.48247 6.1257 8.72744 5.88891 8.72744 5.59383V4.5319C8.72744 4.23864 8.48434 4.00002 8.18139 4.00002H6.42543C5.57644 3.99638 4.80224 4.47361 4.43946 5.22042L0.512388 13.4463C0.175782 14.1475 0 14.9126 0 15.6867C0 18.6211 2.44226 21 5.45489 21C8.46564 21 10.9098 18.6211 10.9098 15.6885C10.9098 15.102 11.396 14.6248 12 14.6248C12.6022 14.6248 13.0902 15.102 13.0902 15.6885C13.0902 18.6211 15.5325 21 18.5451 21C21.5559 21 24 18.6211 24 15.6885C23.9981 14.9053 23.813 14.1312 23.4652 13.4244H23.4614ZM5.45302 18.8761C3.64656 18.8761 2.18046 17.4481 2.18046 15.6885C2.18046 13.9271 3.64656 12.5009 5.45302 12.5009C7.25947 12.5009 8.72557 13.9271 8.72557 15.6885C8.72557 17.4481 7.25947 18.8761 5.45302 18.8761ZM18.5432 18.8761C16.7368 18.8761 15.2707 17.4481 15.2707 15.6885C15.2707 13.9271 16.7368 12.5009 18.5432 12.5009C20.3497 12.5009 21.8158 13.9271 21.8158 15.6885C21.8158 17.4481 20.3497 18.8761 18.5432 18.8761Z" fill="#CFD3D7"/>
</svg>

