<svg xmlns="http://www.w3.org/2000/svg" xmlns:xlink="http://www.w3.org/1999/xlink" width="18" height="16" viewBox="0 0 18 16">
    <defs>
        <linearGradient id="prefix__a" x1="50%" x2="50%" y1="0%" y2="100%">
            <stop offset="0%" stop-color="#CCD2DC"/>
            <stop offset="100%" stop-color="#BDC3CE"/>
        </linearGradient>
        <filter id="prefix__c" width="120%" height="122.2%" x="-10%" y="-11.1%" filterUnits="objectBoundingBox">
            <feOffset dy="-1" in="SourceAlpha" result="shadowOffsetInner1"/>
            <feComposite in="shadowOffsetInner1" in2="SourceAlpha" k2="-1" k3="1" operator="arithmetic" result="shadowInnerInner1"/>
            <feColorMatrix in="shadowInnerInner1" values="0 0 0 0 0.584313725 0 0 0 0 0.615686275 0 0 0 0 0.670588235 0 0 0 1 0"/>
        </filter>
        <path id="prefix__b" d="M9.75 7.5h3.75L9 12 4.5 7.5h3.75V2.25h1.5V7.5zM3 14.25h12V9h1.5v6c0 .414-.336.75-.75.75H2.25c-.414 0-.75-.336-.75-.75V9H3v5.25z"/>
    </defs>
    <g fill="none" fill-rule="evenodd" transform="translate(0 -1)">
        <path d="M0 0L18 0 18 18 0 18z"/>
        <use fill="url(#prefix__a)" xlink:href="#prefix__b"/>
        <use fill="#000" filter="url(#prefix__c)" xlink:href="#prefix__b"/>
        <path stroke="#000" stroke-opacity=".1" d="M3.5 8.5H1V15c0 .345.14.658.366.884.226.226.539.366.884.366h13.5c.345 0 .658-.14.884-.366.226-.226.366-.539.366-.884V8.5h-2.5v5.25h-11V8.5zm6.75-6.75h-2.5V7H3.293L9 12.707 14.707 7H10.25V1.75z"/>
    </g>
</svg>
