<?xml version="1.0" encoding="UTF-8"?>
<svg width="13px" height="13px" viewBox="0 0 13 13" version="1.1" xmlns="http://www.w3.org/2000/svg" xmlns:xlink="http://www.w3.org/1999/xlink">
    <!-- Generator: sketchtool 53.1 (72631) - https://sketchapp.com -->
    <title>4D2D5CC6-EA9D-4D6C-BA58-FADF81B1A175</title>
    <desc>Created with sketchtool.</desc>
    <g id="диз" stroke="none" stroke-width="1" fill="none" fill-rule="evenodd">
        <g id="ui" transform="translate(-96.000000, -457.000000)">
            <g id="Stacked-Group-5" transform="translate(93.000000, 302.000000)">
                <g id="Group-33-Copy-2" transform="translate(0.000000, 152.000000)">
                    <g id="ic_hide_event">
                        <rect id="Rectangle" opacity="0" x="0" y="0" width="18" height="18"></rect>
                        <path d="M7.92800541,5.22516088 C8.44066714,5.07505363 8.96466534,5 9.5,5 C11.8932339,5 14.0599006,6.5 16,9.5 C14.7942003,11.3645432 13.5008821,12.6496662 12.1200455,13.355369 L12.731743,14.5417194 L10.9541279,15.4582806 L5.23505148,4.36647787 L7.01266659,3.44991661 L7.92800541,5.22516088 Z M11.1158139,11.4077226 C11.6566978,10.9491446 12,10.2646636 12,9.5 C12,8.11928813 10.8807119,7 9.5,7 C9.2869686,7 9.08016057,7.02664545 8.88272687,7.0767854 L11.1158139,11.4077226 Z M8.11220251,13.8254173 C6.26203055,13.3509035 4.55796305,11.9090977 3,9.5 C3.55983368,8.63432218 4.1385328,7.89354405 4.73609738,7.27766559 L8.11220251,13.8254173 Z" id="Combined-Shape" fill="#D0D5DF" fill-rule="nonzero"></path>
                    </g>
                </g>
            </g>
        </g>
    </g>
</svg>