<?xml version="1.0" encoding="UTF-8"?>
<svg width="17px" height="13px" viewBox="0 0 17 13" version="1.1" xmlns="http://www.w3.org/2000/svg" xmlns:xlink="http://www.w3.org/1999/xlink">
    <!-- Generator: sketchtool 53.1 (72631) - https://sketchapp.com -->
    <title>81B2F818-B984-4D43-9581-F81F5FCC4E92</title>
    <desc>Created with sketchtool.</desc>
    <g id="диз" stroke="none" stroke-width="1" fill="none" fill-rule="evenodd">
        <g id="ui" transform="translate(-93.000000, -417.000000)">
            <g id="Stacked-Group-5" transform="translate(93.000000, 302.000000)">
                <g id="Group-33-Copy-5" transform="translate(0.000000, 114.000000)">
                    <g id="ic_accept_detection">
                        <rect id="Rectangle" opacity="0" x="0" y="0" width="18" height="18"></rect>
                        <path d="M11.2745461,3 L11.8327977,3 C12.3850824,3 12.8327977,3.44771525 12.8327977,4 L12.8327977,12.4755269 C12.8327977,13.0278116 12.3850824,13.4755269 11.8327977,13.4755269 L4,13.4755269 C3.44771525,13.4755269 3,13.0278116 3,12.4755269 L3,11.2745461 L11.2745461,3 Z M13.8785364,7.52317248 L16.918441,4.30944086 L16.918441,11.7377232 L13.9226623,8.94137978 C13.5189307,8.56452541 13.4971423,7.93173543 13.8739967,7.5280038 L13.8785364,7.52317248 Z" id="Combined-Shape" fill="#D0D5DF"></path>
                        <polygon id="Path-8" fill="#D0D5DF" fill-rule="nonzero" points="7.58578644 1 9 2.41421356 3.96743133 7.44678223 0.758535694 4.23788659 2.17274926 2.82367303 3.96743133 4.61835511"></polygon>
                    </g>
                </g>
            </g>
        </g>
    </g>
</svg>