<svg xmlns="http://www.w3.org/2000/svg" width="18" height="16" viewBox="0 0 18 16">
    <g fill="none" fill-rule="nonzero">
        <path fill="#F3C544" stroke="#171F33" stroke-opacity=".5" d="M9.857 1.457l7.117 11.862a1 1 0 0 1-.857 1.514H1.883a1 1 0 0 1-.857-1.514L8.143 1.457a1 1 0 0 1 1.714 0z"/>
        <path fill="#000" d="M8.171 4.63H9.93l-.146 4.904H8.317l-.146-4.903zM8 11.953c0-.615.413-1.015 1.054-1.015.64 0 1.053.4 1.053 1.015 0 .61-.412 1.01-1.053 1.01S8 12.562 8 11.952z"/>
    </g>
</svg>
