<svg width="14" height="17" viewBox="0 0 14 17" fill="none" xmlns="http://www.w3.org/2000/svg">
<path d="M7 8.80154C5.067 8.80154 3.5 7.16703 3.5 5.15077C3.5 3.13451 5.067 1.5 7 1.5C8.933 1.5 10.5 3.13451 10.5 5.15077C10.5 7.16703 8.933 8.80154 7 8.80154ZM6.71538 9.84461H7.28462C10.165 9.84461 12.5 12.1796 12.5 15.06H1.5C1.5 12.1796 3.83501 9.84461 6.71538 9.84461Z" fill="url(#paint0_linear)"/>
<path fill-rule="evenodd" clip-rule="evenodd" d="M7 9.30154C4.78603 9.30154 3 7.43857 3 5.15077C3 2.86297 4.78603 1 7 1C9.21397 1 11 2.86297 11 5.15077C11 7.43857 9.21397 9.30154 7 9.30154ZM6.71538 9.34462H7.28462C10.4411 9.34462 13 11.9035 13 15.06V15.56H1V15.06C1 11.9035 3.55886 9.34462 6.71538 9.34462Z" stroke="black" stroke-opacity="0.1"/>
<defs>
<linearGradient id="paint0_linear" x1="10.5" y1="1.5" x2="10.5" y2="15.06" gradientUnits="userSpaceOnUse">
<stop stop-color="#CCD2DC"/>
<stop offset="1" stop-color="#BDC3CE"/>
</linearGradient>
</defs>
</svg>
