<?xml version="1.0" encoding="UTF-8"?>
<svg width="18px" height="15px" viewBox="0 0 18 15" version="1.1" xmlns="http://www.w3.org/2000/svg" xmlns:xlink="http://www.w3.org/1999/xlink">
    <!-- Generator: sketchtool 52.6 (67491) - http://www.bohemiancoding.com/sketch -->
    <title>F3CFF1E5-61A3-44E7-B37C-B2CD4D47966A</title>
    <desc>Created with sketchtool.</desc>
    <defs>
        <linearGradient x1="50%" y1="-2.48949813e-15%" x2="50%" y2="100%" id="linearGradient-1">
            <stop stop-color="#CCD2DC" offset="0%"></stop>
            <stop stop-color="#BDC3CE" offset="100%"></stop>
        </linearGradient>
        <path d="M1,2.7533531e-14 L10.2457143,2.7533531e-14 C10.797999,2.74320779e-14 11.2457143,0.44771525 11.2457143,1 L11.2457143,10.9808 C11.2457143,11.5330847 10.797999,11.9808 10.2457143,11.9808 L1,11.9808 C0.44771525,11.9808 6.76353751e-17,11.5330847 0,10.9808 L-2.22044605e-16,1 C-2.8967998e-16,0.44771525 0.44771525,2.76349841e-14 1,2.7533531e-14 Z M12.3423182,5.27821195 L15.9184411,1.4976 L15.9184411,9.99328393 L12.386444,6.69641925 C11.9827124,6.31956488 11.960924,5.6867749 12.3377784,5.28304327 C12.3392863,5.28142782 12.3407996,5.27981737 12.3423182,5.27821195 Z" id="path-2"></path>
        <filter x="-9.4%" y="-12.6%" width="118.8%" height="125.2%" filterUnits="objectBoundingBox" id="filter-3">
            <feOffset dx="0" dy="-1" in="SourceAlpha" result="shadowOffsetInner1"></feOffset>
            <feComposite in="shadowOffsetInner1" in2="SourceAlpha" operator="arithmetic" k2="-1" k3="1" result="shadowInnerInner1"></feComposite>
            <feColorMatrix values="0 0 0 0 0.584313725   0 0 0 0 0.615686275   0 0 0 0 0.670588235  0 0 0 1 0" type="matrix" in="shadowInnerInner1"></feColorMatrix>
        </filter>
    </defs>
    <g id="диз" stroke="none" stroke-width="1" fill="none" fill-rule="evenodd">
        <g id="ui" transform="translate(-92.000000, -207.000000)">
            <g id="Group-32" transform="translate(93.000000, 208.000000)">
                <g id="Group-22" transform="translate(0.000000, 0.280000)">
                    <g id="ic_camera">
                        <use fill="url(#linearGradient-1)" fill-rule="evenodd" xlink:href="#path-2"></use>
                        <use fill="black" fill-opacity="1" filter="url(#filter-3)" xlink:href="#path-2"></use>
                        <path stroke-opacity="0.1" stroke="#000000" stroke-width="1" d="M1,-0.5 L10.2457143,-0.5 C11.0741414,-0.5 11.7457143,0.171572875 11.7457143,1 L11.7457143,10.9808 C11.7457143,11.8092271 11.0741414,12.4808 10.2457143,12.4808 L1,12.4808 C0.171572875,12.4808 -0.5,11.8092271 -0.5,10.9808 L-0.5,1 C-0.5,0.171572875 0.171572875,-0.5 1,-0.5 Z M11.9790776,4.9346187 L16.4184411,0.241404618 L16.4184411,11.143973 L12.0452664,7.06192964 C11.439669,6.49664808 11.4069865,5.54746311 11.972268,4.94186567 C11.9756648,4.93823466 11.9756648,4.93823466 11.9790776,4.9346187 Z"></path>
                    </g>
                </g>
            </g>
        </g>
    </g>
</svg>