<?xml version="1.0" encoding="UTF-8"?>
<svg width="15px" height="16px" viewBox="0 0 15 16" version="1.1" xmlns="http://www.w3.org/2000/svg" xmlns:xlink="http://www.w3.org/1999/xlink">
    <!-- Generator: sketchtool 53.1 (72631) - https://sketchapp.com -->
    <title>68C595B5-F463-4C8D-A50E-F14A15C6D7D2</title>
    <desc>Created with sketchtool.</desc>
    <defs>
        <linearGradient x1="50%" y1="-2.48949813e-15%" x2="50%" y2="100%" id="linearGradient-1">
            <stop stop-color="#CFD3D7" offset="0%"></stop>
            <stop stop-color="#CFD3D7" offset="100%"></stop>
        </linearGradient>
        <path d="M10.2,2.8 C9.15,1.675 7.65,1 6,1 C2.7,1 0,3.7 0,7 C0,10.3 2.7,13 6,13 C8.775,13 11.1,11.05 11.775,8.5 L10.2,8.5 C9.6,10.225 7.95,11.5 6,11.5 C3.525,11.5 1.5,9.475 1.5,7 C1.5,4.525 3.525,2.5 6,2.5 C7.275,2.5 8.325,3.025 9.15,3.85 L6.75,6.25 L12,6.25 L12,1 L10.2,2.8 Z" id="path-2"></path>
        <filter x="-12.5%" y="-24.3%" width="125.6%" height="136.8%" filterUnits="objectBoundingBox" id="filter-3">
            <feOffset dx="0" dy="-1" in="SourceAlpha" result="shadowOffsetInner1"></feOffset>
            <feComposite in="shadowOffsetInner1" in2="SourceAlpha" operator="arithmetic" k2="-1" k3="1" result="shadowInnerInner1"></feComposite>
            <feColorMatrix values="0 0 0 0 0.584313725   0 0 0 0 0.615686275   0 0 0 0 0.670588235  0 0 0 1 0" type="matrix" in="shadowInnerInner1"></feColorMatrix>
        </filter>
    </defs>
    <g id="новый-стиль" stroke="none" stroke-width="1" fill="none" fill-rule="evenodd">
        <g id="1_2-архив" transform="translate(-1415.000000, -97.000000)">
            <g id="Group-22" transform="translate(1156.000000, 44.000000)">
                <g id="Group-10" transform="translate(260.000000, 55.000000)">
                    <g id="Group-17">
                        <g id="Group-15">
                            <g id="ic_refresh" transform="translate(6.000000, 7.000000) scale(-1, -1) rotate(-180.000000) translate(-6.000000, -7.000000) ">
                                <use fill="url(#linearGradient-1)" fill-rule="evenodd" xlink:href="#path-2"></use>
                                <use fill="black" fill-opacity="1" filter="url(#filter-3)" xlink:href="#path-2"></use>
                                <path stroke-opacity="0.1" stroke="#000000" stroke-width="1" d="M10.1968985,2.09599469 L12.5,-0.207106781 L12.5,6.75 L5.54289322,6.75 L8.42452936,3.86836386 C7.72058467,3.29984284 6.9094666,3 6,3 C3.80114237,3 2,4.80114237 2,7 C2,9.19885763 3.80114237,11 6,11 C7.68713641,11 9.18068291,9.90856217 9.7277516,8.33573969 L9.84453062,8 L12.4245737,8 L12.2583526,8.62794628 C11.5096072,11.4565401 8.94340177,13.5 6,13.5 C2.42385763,13.5 -0.5,10.5761424 -0.5,7 C-0.5,3.42385763 2.42385763,0.5 6,0.5 C7.58247707,0.5 9.06792932,1.07524751 10.1968985,2.09599469 Z"></path>
                            </g>
                        </g>
                    </g>
                </g>
            </g>
        </g>
    </g>
</svg>