<?xml version="1.0" encoding="UTF-8"?>
<svg width="20px" height="16px" viewBox="0 0 20 16" version="1.1" xmlns="http://www.w3.org/2000/svg" xmlns:xlink="http://www.w3.org/1999/xlink">
    <!-- Generator: sketchtool 52.6 (67491) - http://www.bohemiancoding.com/sketch -->
    <title>33C4E960-EC36-4ACF-AF27-7AAB0AA9A2B9</title>
    <desc>Created with sketchtool.</desc>
    <defs>
        <linearGradient x1="50%" y1="-2.48949813e-15%" x2="50%" y2="100%" id="linearGradient-1">
            <stop stop-color="#CCD2DC" offset="0%"></stop>
            <stop stop-color="#BDC3CE" offset="100%"></stop>
        </linearGradient>
        <path d="M5.5,7.30153846 C3.56700338,7.30153846 2,5.6670334 2,3.65076923 C2,1.63450506 3.56700338,0 5.5,0 C7.43299662,0 9,1.63450506 9,3.65076923 C9,5.6670334 7.43299662,7.30153846 5.5,7.30153846 Z M5.21538462,8.34461538 L5.78461538,8.34461538 C8.66499277,8.34461538 11,10.6796226 11,13.56 L0,13.56 C-3.52744495e-16,10.6796226 2.33500723,8.34461538 5.21538462,8.34461538 Z M12,1.04307692 L18,1.04307692 L18,2.08615385 L12,2.08615385 L12,1.04307692 Z M12,4.17230769 L18,4.17230769 L18,5.21538462 L12,5.21538462 L12,4.17230769 Z M12,7.30153846 L18,7.30153846 L18,8.34461538 L12,8.34461538 L12,7.30153846 Z" id="path-2"></path>
        <filter x="-8.3%" y="-11.1%" width="116.7%" height="122.1%" filterUnits="objectBoundingBox" id="filter-3">
            <feOffset dx="0" dy="-1" in="SourceAlpha" result="shadowOffsetInner1"></feOffset>
            <feComposite in="shadowOffsetInner1" in2="SourceAlpha" operator="arithmetic" k2="-1" k3="1" result="shadowInnerInner1"></feComposite>
            <feColorMatrix values="0 0 0 0 0.584313725   0 0 0 0 0.615686275   0 0 0 0 0.670588235  0 0 0 1 0" type="matrix" in="shadowInnerInner1"></feColorMatrix>
        </filter>
    </defs>
    <g id="диз" stroke="none" stroke-width="1" fill="none" fill-rule="evenodd">
        <g id="ui" transform="translate(-92.000000, -241.000000)">
            <g id="Group-27" transform="translate(93.000000, 242.000000)">
                <g id="ic_list">
                    <use fill="url(#linearGradient-1)" fill-rule="evenodd" xlink:href="#path-2"></use>
                    <use fill="black" fill-opacity="1" filter="url(#filter-3)" xlink:href="#path-2"></use>
                    <path stroke-opacity="0.1" stroke="#000000" stroke-width="1" d="M5.5,7.80153846 C3.28603336,7.80153846 1.5,5.93856828 1.5,3.65076923 C1.5,1.36297018 3.28603336,-0.5 5.5,-0.5 C7.71396664,-0.5 9.5,1.36297018 9.5,3.65076923 C9.5,5.93856828 7.71396664,7.80153846 5.5,7.80153846 Z M5.21538462,7.84461538 L5.78461538,7.84461538 C8.94113515,7.84461538 11.5,10.4034802 11.5,13.56 L11.5,14.06 L-0.5,14.06 L-0.5,13.56 C-0.5,10.4034802 2.05886485,7.84461538 5.21538462,7.84461538 Z M11.5,0.543076923 L18.5,0.543076923 L18.5,2.58615385 L11.5,2.58615385 L11.5,0.543076923 Z M11.5,3.67230769 L18.5,3.67230769 L18.5,5.71538462 L11.5,5.71538462 L11.5,3.67230769 Z M11.5,6.80153846 L18.5,6.80153846 L18.5,8.84461538 L11.5,8.84461538 L11.5,6.80153846 Z"></path>
                </g>
            </g>
        </g>
    </g>
</svg>