<?xml version="1.0" encoding="UTF-8"?>
<svg width="14px" height="15px" viewBox="0 0 14 15" version="1.1" xmlns="http://www.w3.org/2000/svg" xmlns:xlink="http://www.w3.org/1999/xlink">
    <!-- Generator: sketchtool 52.6 (67491) - http://www.bohemiancoding.com/sketch -->
    <title>4CCDFF23-629A-44E4-93AB-F6E738BC5646</title>
    <desc>Created with sketchtool.</desc>
    <defs>
        <linearGradient x1="50%" y1="-2.48949813e-15%" x2="50%" y2="100%" id="linearGradient-1">
            <stop stop-color="#CCD2DC" offset="0%"></stop>
            <stop stop-color="#BDC3CE" offset="100%"></stop>
        </linearGradient>
        <path d="M4.17391304,7.00159423 C4.17391304,6.84419218 4.04626415,6.71667463 3.88876188,6.71667463 L2.8936924,6.71667463 C2.73637028,6.71667463 2.60869565,6.84419218 2.60869565,7.00159423 L2.60869565,7.99671501 C2.60869565,8.15432299 2.73637028,8.28189202 2.8936924,8.28189202 L3.88876188,8.28189202 C4.04626415,8.28189202 4.17391304,8.15432299 4.17391304,7.99671501 L4.17391304,7.00159423 Z" id="path-2"></path>
        <filter x="-95.8%" y="-95.8%" width="291.7%" height="291.7%" filterUnits="objectBoundingBox" id="filter-3">
            <feOffset dx="0" dy="-1" in="SourceAlpha" result="shadowOffsetInner1"></feOffset>
            <feComposite in="shadowOffsetInner1" in2="SourceAlpha" operator="arithmetic" k2="-1" k3="1" result="shadowInnerInner1"></feComposite>
            <feColorMatrix values="0 0 0 0 0.584313725   0 0 0 0 0.615686275   0 0 0 0 0.670588235  0 0 0 1 0" type="matrix" in="shadowInnerInner1"></feColorMatrix>
        </filter>
        <path d="M6.7826087,7.00159423 C6.7826087,6.84419218 6.65492147,6.71667463 6.49771252,6.71667463 L5.50241617,6.71667463 C5.34507853,6.71667463 5.2173913,6.84419218 5.2173913,7.00159423 L5.2173913,7.99671501 C5.2173913,8.15432299 5.34507853,8.28189202 5.50241617,8.28189202 L6.49771252,8.28189202 C6.65492147,8.28189202 6.7826087,8.15432299 6.7826087,7.99671501 L6.7826087,7.00159423 Z" id="path-4"></path>
        <filter x="-95.8%" y="-95.8%" width="291.7%" height="291.7%" filterUnits="objectBoundingBox" id="filter-5">
            <feOffset dx="0" dy="-1" in="SourceAlpha" result="shadowOffsetInner1"></feOffset>
            <feComposite in="shadowOffsetInner1" in2="SourceAlpha" operator="arithmetic" k2="-1" k3="1" result="shadowInnerInner1"></feComposite>
            <feColorMatrix values="0 0 0 0 0.584313725   0 0 0 0 0.615686275   0 0 0 0 0.670588235  0 0 0 1 0" type="matrix" in="shadowInnerInner1"></feColorMatrix>
        </filter>
        <path d="M9.39130435,7.00159423 C9.39130435,6.84419218 9.26362972,6.71667463 9.1063076,6.71667463 L8.11123812,6.71667463 C7.95373585,6.71667463 7.82608696,6.84419218 7.82608696,7.00159423 L7.82608696,7.99671501 C7.82608696,8.15432299 7.95373585,8.28189202 8.11123812,8.28189202 L9.1063076,8.28189202 C9.26362972,8.28189202 9.39130435,8.15432299 9.39130435,7.99671501 L9.39130435,7.00159423 Z" id="path-6"></path>
        <filter x="-95.8%" y="-95.8%" width="291.7%" height="291.7%" filterUnits="objectBoundingBox" id="filter-7">
            <feOffset dx="0" dy="-1" in="SourceAlpha" result="shadowOffsetInner1"></feOffset>
            <feComposite in="shadowOffsetInner1" in2="SourceAlpha" operator="arithmetic" k2="-1" k3="1" result="shadowInnerInner1"></feComposite>
            <feColorMatrix values="0 0 0 0 0.584313725   0 0 0 0 0.615686275   0 0 0 0 0.670588235  0 0 0 1 0" type="matrix" in="shadowInnerInner1"></feColorMatrix>
        </filter>
        <path d="M4.17391304,9.08873333 C4.17391304,8.93105831 4.04626415,8.80363115 3.88876188,8.80363115 L2.8936924,8.80363115 C2.73637028,8.80363115 2.60869565,8.93105831 2.60869565,9.08873333 L2.60869565,10.0837721 C2.60869565,10.2412927 2.73637028,10.3688485 2.8936924,10.3688485 L3.88876188,10.3688485 C4.04626415,10.3688485 4.17391304,10.2412669 4.17391304,10.0837721 L4.17391304,9.08873333 Z" id="path-8"></path>
        <filter x="-95.8%" y="-95.8%" width="291.7%" height="291.7%" filterUnits="objectBoundingBox" id="filter-9">
            <feOffset dx="0" dy="-1" in="SourceAlpha" result="shadowOffsetInner1"></feOffset>
            <feComposite in="shadowOffsetInner1" in2="SourceAlpha" operator="arithmetic" k2="-1" k3="1" result="shadowInnerInner1"></feComposite>
            <feColorMatrix values="0 0 0 0 0.584313725   0 0 0 0 0.615686275   0 0 0 0 0.670588235  0 0 0 1 0" type="matrix" in="shadowInnerInner1"></feColorMatrix>
        </filter>
        <path d="M6.7826087,9.08873333 C6.7826087,8.93105831 6.65492147,8.80363115 6.49771252,8.80363115 L5.50241617,8.80363115 C5.34507853,8.80363115 5.2173913,8.93105831 5.2173913,9.08873333 L5.2173913,10.0837721 C5.2173913,10.2412927 5.34507853,10.3688485 5.50241617,10.3688485 L6.49771252,10.3688485 C6.65492147,10.3688485 6.7826087,10.2412669 6.7826087,10.0837721 L6.7826087,9.08873333 Z" id="path-10"></path>
        <filter x="-95.8%" y="-95.8%" width="291.7%" height="291.7%" filterUnits="objectBoundingBox" id="filter-11">
            <feOffset dx="0" dy="-1" in="SourceAlpha" result="shadowOffsetInner1"></feOffset>
            <feComposite in="shadowOffsetInner1" in2="SourceAlpha" operator="arithmetic" k2="-1" k3="1" result="shadowInnerInner1"></feComposite>
            <feColorMatrix values="0 0 0 0 0.584313725   0 0 0 0 0.615686275   0 0 0 0 0.670588235  0 0 0 1 0" type="matrix" in="shadowInnerInner1"></feColorMatrix>
        </filter>
        <path d="M9.39130435,9.08873333 C9.39130435,8.93105831 9.26362972,8.80363115 9.10643628,8.80363115 L8.11123812,8.80363115 C7.95373585,8.80363115 7.82608696,8.93105831 7.82608696,9.08873333 L7.82608696,10.0837721 C7.82608696,10.2412927 7.95373585,10.3688485 8.11123812,10.3688485 L9.10643628,10.3688485 C9.26362972,10.3688485 9.39130435,10.2412669 9.39130435,10.0837721 L9.39130435,9.08873333 Z" id="path-12"></path>
        <filter x="-95.8%" y="-95.8%" width="291.7%" height="291.7%" filterUnits="objectBoundingBox" id="filter-13">
            <feOffset dx="0" dy="-1" in="SourceAlpha" result="shadowOffsetInner1"></feOffset>
            <feComposite in="shadowOffsetInner1" in2="SourceAlpha" operator="arithmetic" k2="-1" k3="1" result="shadowInnerInner1"></feComposite>
            <feColorMatrix values="0 0 0 0 0.584313725   0 0 0 0 0.615686275   0 0 0 0 0.670588235  0 0 0 1 0" type="matrix" in="shadowInnerInner1"></feColorMatrix>
        </filter>
        <path d="M10.9318836,2.20735786 C10.5689984,2.97241721 10.1639285,3.35494689 9.716674,3.35494689 L8.95008485,3.35494689 C8.50279681,3.35494689 8.09530513,2.97241721 7.72760983,2.20735786 L4.27239017,2.20735786 C3.90471163,2.97241721 3.49726185,3.35494689 3.05004085,3.35494689 L2.28330086,3.35494689 C1.8360631,3.35494689 1.43100999,2.97241721 1.06814154,2.20735786 L0,2.20735786 L0,11.3446551 C0,11.9547462 0.492439193,12.4558051 1.09999372,12.4558051 L10.9000063,12.4558051 C11.5066558,12.4558051 12,11.9537112 12,11.3446551 L12,2.20735786 L10.9318836,2.20735786 Z M10.1002828,11.2781855 L1.87877569,11.2781855 C1.61611464,11.2781855 1.40323047,11.0642863 1.40323047,10.8006296 L1.40323047,6.28804554 C1.40323047,6.02428785 1.6160895,5.81038864 1.87877569,5.81038864 L10.1002577,5.81038864 C10.3629187,5.81038864 10.5758029,6.02428785 10.5758029,6.28804554 L10.575828,10.8006296 C10.575828,11.0642863 10.3629439,11.2781855 10.1002828,11.2781855 Z" id="path-14"></path>
        <filter x="-12.5%" y="-14.6%" width="125.0%" height="129.3%" filterUnits="objectBoundingBox" id="filter-15">
            <feOffset dx="0" dy="-1" in="SourceAlpha" result="shadowOffsetInner1"></feOffset>
            <feComposite in="shadowOffsetInner1" in2="SourceAlpha" operator="arithmetic" k2="-1" k3="1" result="shadowInnerInner1"></feComposite>
            <feColorMatrix values="0 0 0 0 0.584313725   0 0 0 0 0.615686275   0 0 0 0 0.670588235  0 0 0 1 0" type="matrix" in="shadowInnerInner1"></feColorMatrix>
        </filter>
        <path d="M2.49676375,2.20735786 L3.24236669,2.20735786 C3.46867777,2.20735786 3.65217391,2.08145123 3.65217391,1.92593651 L3.65217391,0.281523274 C3.65217391,0.12599156 3.46867777,-2.27496208e-13 3.24236669,-2.27496208e-13 L2.49676375,-2.27496208e-13 C2.27042794,-2.27496208e-13 2.08695652,0.12599156 2.08695652,0.281523274 L2.08695652,1.92593651 C2.08695652,2.08145123 2.27042794,2.20735786 2.49676375,2.20735786 Z" id="path-16"></path>
        <filter x="-95.8%" y="-68.0%" width="291.7%" height="235.9%" filterUnits="objectBoundingBox" id="filter-17">
            <feOffset dx="0" dy="-1" in="SourceAlpha" result="shadowOffsetInner1"></feOffset>
            <feComposite in="shadowOffsetInner1" in2="SourceAlpha" operator="arithmetic" k2="-1" k3="1" result="shadowInnerInner1"></feComposite>
            <feColorMatrix values="0 0 0 0 0.584313725   0 0 0 0 0.615686275   0 0 0 0 0.670588235  0 0 0 1 0" type="matrix" in="shadowInnerInner1"></feColorMatrix>
        </filter>
        <path d="M8.7576539,2.20735786 L9.50333928,2.20735786 C9.72952705,2.20735786 9.91304348,2.08145123 9.91304348,1.92593651 L9.91304348,0.281523274 C9.9130682,0.12599156 9.72955177,-7.26085858e-14 9.50333928,-7.26085858e-14 L8.7576539,-7.26085858e-14 C8.53134252,-7.26085858e-14 8.34782609,0.12599156 8.34782609,0.281523274 L8.34782609,1.92593651 C8.34782609,2.08145123 8.53134252,2.20735786 8.7576539,2.20735786 Z" id="path-18"></path>
        <filter x="-95.8%" y="-68.0%" width="291.7%" height="235.9%" filterUnits="objectBoundingBox" id="filter-19">
            <feOffset dx="0" dy="-1" in="SourceAlpha" result="shadowOffsetInner1"></feOffset>
            <feComposite in="shadowOffsetInner1" in2="SourceAlpha" operator="arithmetic" k2="-1" k3="1" result="shadowInnerInner1"></feComposite>
            <feColorMatrix values="0 0 0 0 0.584313725   0 0 0 0 0.615686275   0 0 0 0 0.670588235  0 0 0 1 0" type="matrix" in="shadowInnerInner1"></feColorMatrix>
        </filter>
    </defs>
    <g id="диз" stroke="none" stroke-width="1" fill="none" fill-rule="evenodd">
        <g id="1_3-архив-фильтр" transform="translate(-1284.000000, -183.000000)">
            <g id="Group-31" transform="translate(1175.000000, 91.000000)">
                <g id="Stacked-Group-3" transform="translate(22.000000, 65.000000)">
                    <g id="Group-27">
                        <g id="Group-25" transform="translate(0.000000, 19.000000)">
                            <g id="Group-22">
                                <g id="ic_calendar" transform="translate(88.000000, 9.000000)">
                                    <g id="Path">
                                        <use fill="url(#linearGradient-1)" fill-rule="evenodd" xlink:href="#path-2"></use>
                                        <use fill="black" fill-opacity="1" filter="url(#filter-3)" xlink:href="#path-2"></use>
                                        <path stroke-opacity="0.1" stroke="#000000" stroke-width="1" d="M4.67391304,7.00159423 L4.67391304,7.99671501 C4.67391304,8.43044844 4.32242346,8.78189202 3.88876188,8.78189202 L2.8936924,8.78189202 C2.46014332,8.78189202 2.10869565,8.43038077 2.10869565,7.99671501 L2.10869565,7.00159423 C2.10869565,6.56802854 2.46024911,6.21667463 2.8936924,6.21667463 L3.88876188,6.21667463 C4.3223177,6.21667463 4.67391304,6.56796087 4.67391304,7.00159423 Z"></path>
                                    </g>
                                    <g id="Path">
                                        <use fill="url(#linearGradient-1)" fill-rule="evenodd" xlink:href="#path-4"></use>
                                        <use fill="black" fill-opacity="1" filter="url(#filter-5)" xlink:href="#path-4"></use>
                                        <path stroke-opacity="0.1" stroke="#000000" stroke-width="1" d="M7.2826087,7.00159423 L7.2826087,7.99671501 C7.2826087,8.430337 6.93119219,8.78189202 6.49771252,8.78189202 L5.50241617,8.78189202 C5.06886261,8.78189202 4.7173913,8.43039182 4.7173913,7.99671501 L4.7173913,7.00159423 C4.7173913,6.56801749 5.06896839,6.21667463 5.50241617,6.21667463 L6.49771252,6.21667463 C6.9310864,6.21667463 7.2826087,6.56807232 7.2826087,7.00159423 Z"></path>
                                    </g>
                                    <g id="Path">
                                        <use fill="url(#linearGradient-1)" fill-rule="evenodd" xlink:href="#path-6"></use>
                                        <use fill="black" fill-opacity="1" filter="url(#filter-7)" xlink:href="#path-6"></use>
                                        <path stroke-opacity="0.1" stroke="#000000" stroke-width="1" d="M9.89130435,7.00159423 L9.89130435,7.99671501 C9.89130435,8.43038077 9.53985668,8.78189202 9.1063076,8.78189202 L8.11123812,8.78189202 C7.67757654,8.78189202 7.32608696,8.43044844 7.32608696,7.99671501 L7.32608696,7.00159423 C7.32608696,6.56796087 7.6776823,6.21667463 8.11123812,6.21667463 L9.1063076,6.21667463 C9.53975089,6.21667463 9.89130435,6.56802854 9.89130435,7.00159423 Z"></path>
                                    </g>
                                    <g id="Path">
                                        <use fill="url(#linearGradient-1)" fill-rule="evenodd" xlink:href="#path-8"></use>
                                        <use fill="black" fill-opacity="1" filter="url(#filter-9)" xlink:href="#path-8"></use>
                                        <path stroke-opacity="0.1" stroke="#000000" stroke-width="1" d="M4.67391304,9.08873333 L4.67391304,10.0837721 C4.67391304,10.5174361 4.3223797,10.8688485 3.88876188,10.8688485 L2.8936924,10.8688485 C2.46018517,10.8688485 2.10869565,10.5173923 2.10869565,10.0837721 L2.10869565,9.08873333 C2.10869565,8.65497916 2.46016464,8.30363115 2.8936924,8.30363115 L3.88876188,8.30363115 C4.32240217,8.30363115 4.67391304,8.65491149 4.67391304,9.08873333 Z"></path>
                                    </g>
                                    <g id="Path">
                                        <use fill="url(#linearGradient-1)" fill-rule="evenodd" xlink:href="#path-10"></use>
                                        <use fill="black" fill-opacity="1" filter="url(#filter-11)" xlink:href="#path-10"></use>
                                        <path stroke-opacity="0.1" stroke="#000000" stroke-width="1" d="M7.2826087,9.08873333 L7.2826087,10.0837721 C7.2826087,10.5173247 6.93114844,10.8688485 6.49771252,10.8688485 L5.50241617,10.8688485 C5.06890445,10.8688485 4.7173913,10.5174034 4.7173913,10.0837721 L4.7173913,9.08873333 C4.7173913,8.65496811 5.06888391,8.30363115 5.50241617,8.30363115 L6.49771252,8.30363115 C6.93117086,8.30363115 7.2826087,8.65502293 7.2826087,9.08873333 Z"></path>
                                    </g>
                                    <g id="Path">
                                        <use fill="url(#linearGradient-1)" fill-rule="evenodd" xlink:href="#path-12"></use>
                                        <use fill="black" fill-opacity="1" filter="url(#filter-13)" xlink:href="#path-12"></use>
                                        <path stroke-opacity="0.1" stroke="#000000" stroke-width="1" d="M9.89130435,9.08873333 L9.89130435,10.0837721 C9.89130435,10.5173137 9.53986772,10.8688485 9.10643628,10.8688485 L8.11123812,10.8688485 C7.67761838,10.8688485 7.32608696,10.51746 7.32608696,10.0837721 L7.32608696,9.08873333 C7.32608696,8.65491149 7.67759783,8.30363115 8.11123812,8.30363115 L9.10643628,8.30363115 C9.53989014,8.30363115 9.89130435,8.65503398 9.89130435,9.08873333 Z"></path>
                                    </g>
                                    <g id="Shape">
                                        <use fill="url(#linearGradient-1)" fill-rule="evenodd" xlink:href="#path-14"></use>
                                        <use fill="black" fill-opacity="1" filter="url(#filter-15)" xlink:href="#path-14"></use>
                                        <path stroke-opacity="0.1" stroke="#000000" stroke-width="1" d="M10.4801264,1.99307904 L10.6156505,1.70735786 L12.5,1.70735786 L12.5,11.3446551 C12.5,12.2297666 11.7829202,12.9558051 10.9000063,12.9558051 L1.09999372,12.9558051 C0.216142764,12.9558051 -0.5,12.2307688 -0.5,11.3446551 L-0.5,1.70735786 L1.3843809,1.70735786 L1.51990259,1.99308712 C1.80896526,2.6025369 2.07623721,2.85494689 2.28330086,2.85494689 L3.05004085,2.85494689 C3.2581516,2.85494689 3.5283214,2.60130098 3.82173212,1.99077689 L3.95793997,1.70735786 L8.04205382,1.70735786 L8.17826403,1.99076887 C8.47169024,2.60129737 8.74189167,2.85494689 8.95008485,2.85494689 L9.716674,2.85494689 C9.92376109,2.85494689 10.1910485,2.60253273 10.4801264,1.99307904 Z M10.0758279,10.7781855 L10.075803,6.31038864 L1.90323047,6.31038864 L1.90323047,10.7781855 L10.0758279,10.7781855 Z"></path>
                                    </g>
                                    <g id="Path">
                                        <use fill="url(#linearGradient-1)" fill-rule="evenodd" xlink:href="#path-16"></use>
                                        <use fill="black" fill-opacity="1" filter="url(#filter-17)" xlink:href="#path-16"></use>
                                        <path stroke-opacity="0.1" stroke="#000000" stroke-width="1" d="M2.49676375,2.70735786 C2.02551254,2.70735786 1.58695652,2.40625797 1.58695652,1.92593651 L1.58695652,0.281523274 C1.58695652,-0.198763891 2.02550976,-0.5 2.49676375,-0.5 L3.24236669,-0.5 C3.71360244,-0.5 4.15217391,-0.198763919 4.15217391,0.281523274 L4.15217391,1.92593651 C4.15217391,2.406258 3.71359967,2.70735786 3.24236669,2.70735786 L2.49676375,2.70735786 Z"></path>
                                    </g>
                                    <g id="Path">
                                        <use fill="url(#linearGradient-1)" fill-rule="evenodd" xlink:href="#path-18"></use>
                                        <use fill="black" fill-opacity="1" filter="url(#filter-19)" xlink:href="#path-18"></use>
                                        <path stroke-opacity="0.1" stroke="#000000" stroke-width="1" d="M8.7576539,2.70735786 C8.28642018,2.70735786 7.84782609,2.40626512 7.84782609,1.92593651 L7.84782609,0.281523274 C7.84782609,-0.198771036 8.28641741,-0.5 8.7576539,-0.5 L9.50333928,-0.5 C9.97452552,-0.5 10.4131198,-0.198706227 10.4130435,0.281523274 L10.4130435,1.92593651 C10.4130435,2.40622253 9.97447873,2.70735786 9.50333928,2.70735786 L8.7576539,2.70735786 Z"></path>
                                    </g>
                                </g>
                            </g>
                        </g>
                    </g>
                </g>
            </g>
        </g>
    </g>
</svg>