<svg xmlns="http://www.w3.org/2000/svg" xmlns:xlink="http://www.w3.org/1999/xlink" width="26" height="26" viewBox="0 0 26 26">
    <defs>
        <path id="prefix__a" d="M13.018 26c1.75 0 3.419-.346 4.943-.973 4.728-1.945 8.057-6.597 8.057-12.027 0-7.18-5.82-13-13-13s-13 5.82-13 13 5.82 13 13 13z"/>
    </defs>
    <g fill="none" fill-rule="evenodd">
        <mask id="prefix__b" fill="#fff">
            <use xlink:href="#prefix__a"/>
        </mask>
        <use fill="#E36060" xlink:href="#prefix__a"/>
        <path fill="#FFF" d="M-0.728 10.767L6.248 10.832 6.272 12.993 -0.704 12.928z" mask="url(#prefix__b)" transform="rotate(15 2.772 11.88)"/>
        <path fill="#FFF" d="M21.025 10.962L27.005 10.897 26.984 13.058 21.005 13.123z" mask="url(#prefix__b)" transform="rotate(-15 24.005 12.01)"/>
        <path fill="#FFF" d="M0.022 17.065L6.279 17 6.257 19.161 0 19.226z" mask="url(#prefix__b)" transform="rotate(-15 3.14 18.113)"/>
        <path fill="#FFF" d="M20.022 17.065L26.279 17 26.257 19.161 20 19.226z" mask="url(#prefix__b)" transform="scale(-1 1) rotate(-15 0 193.875)"/>
        <g fill="#FFF" fill-rule="nonzero">
            <path d="M2.164 11.047C1.211 10.475.694 9.415.85 8.346l.688-4.732c.123-.845.872-1.48 1.74-1.48h.674c.298 0 1.37-1.8 5.87-1.8s5.598 1.8 5.871 1.8h.674c.869 0 1.616.635 1.74 1.48l.688 4.732c.155 1.07-.361 2.13-1.314 2.7-2.54 1.524-5.1 2.287-7.659 2.287s-5.117-.762-7.658-2.286z" transform="translate(3.178 8.667)"/>
        </g>
    </g>
</svg>
