<svg xmlns="http://www.w3.org/2000/svg" xmlns:xlink="http://www.w3.org/1999/xlink" width="18" height="18" viewBox="0 0 18 18">
    <defs>
        <linearGradient id="q0axgmrfta" x1="50%" x2="50%" y1="0%" y2="100%">
            <stop offset="0%" stop-color="#CCD2DC"/>
            <stop offset="100%" stop-color="#BDC3CE"/>
        </linearGradient>
        <filter id="dtldvec2nc" width="120.5%" height="120.4%" x="-9%" y="-9%" filterUnits="objectBoundingBox">
            <feOffset dy="-1" in="SourceAlpha" result="shadowOffsetInner1"/>
            <feComposite in="shadowOffsetInner1" in2="SourceAlpha" k2="-1" k3="1" operator="arithmetic" result="shadowInnerInner1"/>
            <feColorMatrix in="shadowInnerInner1" values="0 0 0 0 0.584313725 0 0 0 0 0.615686275 0 0 0 0 0.670588235 0 0 0 1 0"/>
        </filter>
        <path id="9rlkavaaqb" d="M15.284 8.588v5.915l1.826-1.825.898.898-3.416 3.416-3.442-3.443.89-.89 1.984 1.982V8.588h1.26zM15.218 1l-.001 5.723h-1.202l.001-4.483H3.202v12.696h7.147l1.39 1.24H2V1h13.218zm-4.721 11.383v1.138H4.832v-1.138h5.665zm1.888-2.372v1.139H4.832V10.01h7.553zm0-6.165v4.742H4.832V3.846h7.553z"/>
    </defs>
    <g fill="none" fill-rule="evenodd">
        <g>
            <g>
                <g transform="translate(-309 -703) translate(306 700) translate(3 3)">
                    <use fill="url(#q0axgmrfta)" xlink:href="#9rlkavaaqb"/>
                    <use fill="#000" filter="url(#dtldvec2nc)" xlink:href="#9rlkavaaqb"/>
                    <path stroke="#000" stroke-opacity=".1" stroke-width=".944" d="M15.756 8.116v5.248l1.354-1.353 1.566 1.565-4.084 4.084-4.11-4.11 1.559-1.56 1.51 1.512.001-5.386h2.204zM15.69.528l-.001 6.667h-2.146V2.712h-9.87v11.752h6.856l2.448 2.184H1.527V.529H15.69zM10.97 11.91v2.082H4.36V11.91h6.61zm1.887-2.372v2.083H4.36V9.539h8.497zm0-6.165V9.06H4.36V3.374h8.497z"/>
                </g>
            </g>
        </g>
    </g>
</svg>
