<?xml version="1.0" encoding="UTF-8"?>
<svg width="12px" height="13px" viewBox="0 0 12 13" version="1.1" xmlns="http://www.w3.org/2000/svg" xmlns:xlink="http://www.w3.org/1999/xlink">
    <!-- Generator: sketchtool 53.1 (72631) - https://sketchapp.com -->
    <title>A345A9BB-B39D-40DA-934A-1166B0DD5CF6</title>
    <desc>Created with sketchtool.</desc>
    <g id="диз" stroke="none" stroke-width="1" fill="none" fill-rule="evenodd">
        <g id="ui" transform="translate(-96.000000, -342.000000)">
            <g id="Stacked-Group-5" transform="translate(93.000000, 302.000000)">
                <g id="Group-33-Copy-4" transform="translate(0.000000, 38.000000)">
                    <g id="ic_add_favourite">
                        <rect id="Rectangle" opacity="0" x="0" y="0" width="18" height="18"></rect>
                        <path d="M7,5 L5,5 L5,12.0091762 L8.32302229,10.6356052 L11,11.8726127 L11,10 L13,10 L13,15 L8.27838067,12.8181818 L3,15 L3,3 L7,3 L7,5 Z" id="Combined-Shape" fill="#D0D5DF"></path>
                        <path d="M13,4 L15,4 L15,6 L13,6 L13,8 L11,8 L11,6 L9,6 L9,4 L11,4 L11,2 L13,2 L13,4 Z" id="Combined-Shape" fill="#D0D5DF" fill-rule="nonzero"></path>
                    </g>
                </g>
            </g>
        </g>
    </g>
</svg>