<?xml version="1.0" encoding="UTF-8"?>
<svg width="14px" height="12px" viewBox="0 0 14 12" version="1.1" xmlns="http://www.w3.org/2000/svg" xmlns:xlink="http://www.w3.org/1999/xlink">
    <!-- Generator: sketchtool 53.1 (72631) - https://sketchapp.com -->
    <title>5F274BA0-1B87-4F39-8FF1-FEBF0BCB62F4</title>
    <desc>Created with sketchtool.</desc>
    <g id="диз" stroke="none" stroke-width="1" fill="none" fill-rule="evenodd">
        <g id="ui" transform="translate(-95.000000, -306.000000)">
            <g id="Stacked-Group-5" transform="translate(93.000000, 302.000000)">
                <g id="Group-33">
                    <g id="ic_add_list">
                        <rect id="Rectangle" opacity="0" x="0" y="0" width="18" height="18"></rect>
                        <g id="ic_add_to_list" transform="translate(2.000000, 4.000000)" fill="#D0D5DF">
                            <path d="M4.58333333,6.08461538 C2.97250281,6.08461538 1.66666667,4.72252783 1.66666667,3.04230769 C1.66666667,1.36208755 2.97250281,0 4.58333333,0 C6.19416385,0 7.5,1.36208755 7.5,3.04230769 C7.5,4.72252783 6.19416385,6.08461538 4.58333333,6.08461538 Z M4.34615385,6.95384615 L4.82051282,6.95384615 C7.22082731,6.95384615 9.16666667,8.89968551 9.16666667,11.3 L0,11.3 C-2.93953746e-16,8.89968551 1.94583936,6.95384615 4.34615385,6.95384615 Z" id="Combined-Shape"></path>
                            <g id="Group-37" transform="translate(8.000000, 3.000000)" fill-rule="nonzero">
                                <path d="M4,2 L6,2 L6,4 L4,4 L4,6 L2,6 L2,4 L0,4 L1.2246468e-16,2 L2,2 L2,0 L4,0 L4,2 Z" id="Combined-Shape"></path>
                            </g>
                        </g>
                    </g>
                </g>
            </g>
        </g>
    </g>
</svg>