<?xml version="1.0" encoding="UTF-8"?>
<svg width="14px" height="12px" viewBox="0 0 14 12" version="1.1" xmlns="http://www.w3.org/2000/svg" xmlns:xlink="http://www.w3.org/1999/xlink">
    <!-- Generator: sketchtool 53.1 (72631) - https://sketchapp.com -->
    <title>B6F04F9A-9336-42E1-8322-9995BF28D890</title>
    <desc>Created with sketchtool.</desc>
    <g id="новый-стиль" stroke="none" stroke-width="1" fill="none" fill-rule="evenodd">
        <g id="ui" transform="translate(-94.000000, -774.000000)" fill="#CFD3D7">
            <g id="Group-8" transform="translate(94.000000, 774.000000)">
                <path d="M3.50922981,1.93303847 L3.72538807,1.1262971 C3.90308316,0.463107173 4.52152218,1.82647628e-13 5.22945908,1.82521773e-13 L8.73009261,1.82076576e-13 C9.43802951,1.82559233e-13 10.0564685,0.463107173 10.2341636,1.1262971 L10.4503219,1.93303847 L12.187216,1.93303847 C13.188389,1.93303847 14,2.71849512 14,3.68740501 L14,10.1456335 C14,11.1145433 13.188389,11.9 12.187216,11.9 L1.81278395,11.9 C0.81161102,11.9 -5.18573589e-13,11.1145433 -5.18696197e-13,10.1456335 L-5.18696197e-13,3.68740501 C-5.18818805e-13,2.71849512 0.81161102,1.93303847 1.81278395,1.93303847 L3.50922981,1.93303847 Z M6.96455566,10.3147457 C8.82387681,10.3147457 10.3311544,8.85604046 10.3311544,7.05663639 C10.3311544,5.25723232 8.82387681,3.7985271 6.96455566,3.7985271 C5.1052345,3.7985271 3.59795689,5.25723232 3.59795689,7.05663639 C3.59795689,8.85604046 5.1052345,10.3147457 6.96455566,10.3147457 Z M6.96455566,9.06162672 C5.82035802,9.06162672 4.89280257,8.16396197 4.89280257,7.05663639 C4.89280257,5.94931081 5.82035802,5.05164606 6.96455566,5.05164606 C8.10875329,5.05164606 9.03630874,5.94931081 9.03630874,7.05663639 C9.03630874,8.16396197 8.10875329,9.06162672 6.96455566,9.06162672 Z" id="Combined-Shape"></path>
            </g>
        </g>
    </g>
</svg>