<?xml version="1.0" encoding="UTF-8"?>
<svg width="19px" height="19px" viewBox="0 0 19 19" version="1.1" xmlns="http://www.w3.org/2000/svg" xmlns:xlink="http://www.w3.org/1999/xlink">
    <!-- Generator: sketchtool 52.6 (67491) - http://www.bohemiancoding.com/sketch -->
    <title>70BA10EB-DD3D-4598-ACFE-F3B15D00F7C9</title>
    <desc>Created with sketchtool.</desc>
    <defs>
        <linearGradient x1="50%" y1="-2.48949813e-15%" x2="50%" y2="100%" id="linearGradient-1">
            <stop stop-color="#CCD2DC" offset="0%"></stop>
            <stop stop-color="#BDC3CE" offset="100%"></stop>
        </linearGradient>
        <path d="M16.3820823,6.9326334 L14.367932,6.55498022 C14.245506,6.14758512 14.085038,5.75679016 13.8861822,5.38916623 L15.0516503,3.68523104 C15.1595512,3.52752971 15.1370718,3.29028605 15.0018499,3.15540991 L13.5649003,1.71811447 C13.4296783,1.5828925 13.1927805,1.56110482 13.0357708,1.66865989 L11.3307982,2.83481971 C10.9524533,2.63077633 10.5495541,2.46719578 10.1293631,2.34373224 L9.75378493,0.33995703 C9.71850963,0.152167948 9.5359081,0 9.34431482,0 L7.31218108,0 C7.12093364,0 6.93798627,0.152167948 6.90236514,0.33995703 L6.52263694,2.36344491 C6.11973773,2.48656261 5.73343865,2.64703063 5.36961892,2.84484896 L3.68677978,1.6935601 C3.52907846,1.58565919 3.2918348,1.60779271 3.15695866,1.74301468 L1.71966325,3.18031012 C1.58444128,3.31553209 1.5626536,3.55242992 1.67020867,3.71013125 L2.82876007,5.40334551 C2.63370843,5.76716525 2.47566127,6.1531185 2.35461859,6.55532605 L0.34046833,6.9326334 C0.153025088,6.96825453 0.000857142857,7.1512019 0.000857142857,7.34244935 L0.000857142857,9.37458313 C0.000857142857,9.56583058 0.153025088,9.74877795 0.34046833,9.78474492 L2.35323524,10.1620523 C2.47600711,10.5729057 2.63785847,10.967159 2.83775181,11.3375497 L1.69234219,13.0120888 C1.58444128,13.1697901 1.6065748,13.4070338 1.74179677,13.5415641 L3.17874635,14.9785137 C3.31396832,15.1140815 3.55086614,15.1355233 3.70856746,15.0286599 L5.38241486,13.8829044 C5.74243039,14.0776102 6.12457943,14.2360032 6.52332862,14.3584293 L6.90271097,16.3826088 C6.9383321,16.5703979 7.12127947,16.7218742 7.31252691,16.7218742 L9.34500649,16.7218742 C9.53659977,16.7218742 9.71885547,16.5703979 9.75482244,16.3826088 L10.1307464,14.3784878 C10.5457499,14.2560618 10.9448449,14.0945562 11.3197314,13.8939712 L13.0146748,15.053906 C13.1723762,15.1618069 13.4096198,15.1396734 13.5444959,15.0037597 L14.9807538,13.5675018 C15.1166675,13.431934 15.1381093,13.1957278 15.0309001,13.0376807 L13.8775362,11.3524206 C14.0812338,10.9775341 14.2448143,10.5787849 14.3696612,10.1627439 L16.3820823,9.78543659 C16.5691797,9.74946962 16.7210018,9.56652225 16.7210018,9.37527481 L16.7210018,7.34314102 C16.7223852,7.1512019 16.5698714,6.96825453 16.3820823,6.9326334 Z M8.36179407,11.8486956 C6.43617788,11.8486956 4.87472726,10.287245 4.87472726,8.36059126 C4.87472726,6.43532087 6.43617788,4.87352439 8.36179407,4.87352439 C10.2881019,4.87352439 11.8498984,6.43532087 11.8498984,8.36059126 C11.8498984,10.287245 10.2874102,11.8486956 8.36179407,11.8486956 Z" id="path-2"></path>
        <filter x="-9.0%" y="-9.0%" width="117.9%" height="117.9%" filterUnits="objectBoundingBox" id="filter-3">
            <feOffset dx="0" dy="-1" in="SourceAlpha" result="shadowOffsetInner1"></feOffset>
            <feComposite in="shadowOffsetInner1" in2="SourceAlpha" operator="arithmetic" k2="-1" k3="1" result="shadowInnerInner1"></feComposite>
            <feColorMatrix values="0 0 0 0 0.584313725   0 0 0 0 0.615686275   0 0 0 0 0.670588235  0 0 0 1 0" type="matrix" in="shadowInnerInner1"></feColorMatrix>
        </filter>
    </defs>
    <g id="диз" stroke="none" stroke-width="1" fill="none" fill-rule="evenodd">
        <g id="ui" transform="translate(-281.000000, -358.000000)">
            <g id="Group-43" transform="translate(275.000000, 352.000000)">
                <g id="Group-51">
                    <g id="ic_filter" transform="translate(7.000000, 7.000000)">
                        <g id="Shape">
                            <use fill="url(#linearGradient-1)" fill-rule="evenodd" xlink:href="#path-2"></use>
                            <use fill="black" fill-opacity="1" filter="url(#filter-3)" xlink:href="#path-2"></use>
                            <path stroke-opacity="0.1" stroke="#000000" stroke-width="1" d="M14.7537202,10.5994492 C14.6679687,10.8459291 14.5693941,11.0849061 14.4581336,11.3154741 L15.4446831,12.7569964 C15.6866996,13.1137756 15.6397262,13.616414 15.3343072,13.9210552 L13.8994013,15.3559559 C13.5945613,15.6631409 13.0892369,15.7107571 12.7322936,15.4665328 L11.2811106,14.4734155 C11.0508895,14.5829105 10.8124786,14.6798948 10.567144,14.7640498 L10.2458965,16.4766635 C10.1648114,16.9000214 9.77650133,17.2218742 9.34500649,17.2218742 L7.31252691,17.2218742 C6.88111151,17.2218742 6.4918659,16.8996224 6.41126823,16.4747176 L6.08620426,14.7403517 C5.85748018,14.6591219 5.63510685,14.5666771 5.41985567,14.463193 L3.98905175,15.4425785 C3.6326552,15.684084 3.12944694,15.6370998 2.82519295,15.3320671 L1.38915108,13.8960228 C1.08289771,13.591336 1.03574139,13.086285 1.27965093,12.7298018 L2.25767108,11.2999789 C2.14900389,11.0735073 2.05265121,10.8393629 1.96897867,10.5987292 L0.246246256,10.2757869 C-0.176653962,10.19464 -0.499142857,9.80570293 -0.499142857,9.37458313 L-0.499142857,7.34244935 C-0.499142857,6.91106783 -0.176259699,6.52188236 0.24840558,6.44118203 L1.97095435,6.11849989 C2.05208966,5.88634479 2.14490017,5.66045749 2.24916523,5.44170399 L1.25713333,3.99185588 C1.01415896,3.63559763 1.06096121,3.13190539 1.36610986,2.82675674 L2.80295287,1.38991428 C3.10795037,1.08413472 3.61268563,1.03702913 3.96910046,1.28089191 L5.40639243,2.2641934 C5.62582207,2.15815566 5.85253237,2.06373457 6.08565,1.98115385 L6.41112473,0.24677515 C6.49149582,-0.176928777 6.88063431,-0.5 7.31218108,-0.5 L9.34431482,-0.5 C9.7764101,-0.5 10.1654984,-0.176593058 10.2452268,0.247843492 L10.5657513,1.95789783 C10.8159246,2.04353376 11.0587473,2.1426016 11.2930923,2.254841 L12.7532009,1.25616233 C13.1090121,1.01242382 13.6132078,1.05931516 13.9184962,1.36460363 L15.3549503,2.80140412 C15.6606697,3.10634164 15.7082294,3.6110665 15.4643471,3.96750993 L14.4663833,5.42655075 C14.5735712,5.64973479 14.6687605,5.8806133 14.7517291,6.11822903 L16.4742266,6.4411973 L16.4752642,6.44139299 C16.9002576,6.52200868 17.2241142,6.91309805 17.2210018,7.34314102 L17.2210018,9.37527481 C17.2210018,9.80616284 16.8991106,10.1951997 16.4742215,10.2768736 L14.7537202,10.5994492 Z M8.36179407,11.3486956 C10.0116492,11.3486956 11.3498984,10.0107213 11.3498984,8.36059126 C11.3498984,6.71132581 10.0118221,5.37352439 8.36179407,5.37352439 C6.71244736,5.37352439 5.37472726,6.71133614 5.37472726,8.36059126 C5.37472726,10.0109652 6.71218285,11.3486956 8.36179407,11.3486956 Z"></path>
                        </g>
                    </g>
                </g>
            </g>
        </g>
    </g>
</svg>