<?xml version="1.0" encoding="UTF-8"?>
<svg width="12px" height="12px" viewBox="0 0 12 12" version="1.1" xmlns="http://www.w3.org/2000/svg" xmlns:xlink="http://www.w3.org/1999/xlink">
    <!-- Generator: sketchtool 53.1 (72631) - https://sketchapp.com -->
    <title>5264D41A-65F1-4CE5-90CE-5AA7ADA3D652</title>
    <desc>Created with sketchtool.</desc>
    <g id="новый-стиль" stroke="none" stroke-width="1" fill="none" fill-rule="evenodd">
        <g id="1_1-события" transform="translate(-1678.000000, -769.000000)">
            <g id="Group-29" transform="translate(1156.000000, 380.000000)">
                <g id="Group-48" transform="translate(508.000000, 318.000000)">
                    <g id="Group-34">
                        <g id="Stacked-Group-5" transform="translate(0.000000, 13.000000)">
                            <g id="Group-33-Copy" transform="translate(0.000000, 52.000000)">
                                <g id="ic_search" transform="translate(12.000000, 3.000000)">
                                    <rect id="Rectangle" opacity="0" x="0" y="0" width="18" height="18"></rect>
                                    <path d="M9.81291137,12.1348072 C7.86666901,13.4620232 5.19119762,13.2622654 3.46446609,11.5355339 C1.51184464,9.58291245 1.51184464,6.41708755 3.46446609,4.46446609 C5.41708755,2.51184464 8.58291245,2.51184464 10.5355339,4.46446609 C12.2296485,6.15858073 12.4539317,8.76593154 11.2083835,10.7018522 L13.8316793,13.325148 L12.4174658,14.7393616 L9.81291137,12.1348072 Z M9.12132034,10.1213203 C10.2928932,8.94974747 10.2928932,7.05025253 9.12132034,5.87867966 C7.94974747,4.70710678 6.05025253,4.70710678 4.87867966,5.87867966 C3.70710678,7.05025253 3.70710678,8.94974747 4.87867966,10.1213203 C6.05025253,11.2928932 7.94974747,11.2928932 9.12132034,10.1213203 Z" id="Shape" fill="#808080"></path>
                                </g>
                            </g>
                        </g>
                    </g>
                </g>
            </g>
        </g>
    </g>
</svg>