<?xml version="1.0" encoding="UTF-8"?>
<svg width="16px" height="16px" viewBox="0 0 16 16" version="1.1" xmlns="http://www.w3.org/2000/svg" xmlns:xlink="http://www.w3.org/1999/xlink">
    <!-- Generator: sketchtool 53.1 (72631) - https://sketchapp.com -->
    <title>5981B62A-0377-48F9-A45E-9F7A043D53A4</title>
    <desc>Created with sketchtool.</desc>
    <g id="новый-стиль" stroke="none" stroke-width="1" fill="none" fill-rule="evenodd">
        <g id="2_1-контрольные-списки" transform="translate(-1185.000000, -106.000000)" fill="#404C68">
            <g id="Group-17" transform="translate(1176.000000, 102.000000)">
                <g id="Group-27-Copy-3">
                    <g id="Group-25">
                        <g id="Group-22">
                            <g id="ic_search_field" transform="translate(9.000000, 4.000000)">
                                <g id="Shape-2" transform="translate(2.000000, 2.000000)">
                                    <path d="M8.47324948,9.90687035 C6.362513,11.3462611 3.4609139,11.1296201 1.58824105,9.25694722 C-0.529413684,7.13929249 -0.529413684,3.70589579 1.58824105,1.58824105 C3.70589579,-0.529413684 7.13929249,-0.529413684 9.25694722,1.58824105 C11.0942464,3.42554027 11.3374858,6.25326132 9.98666528,8.35280368 L12.831679,11.1978174 L11.2979378,12.7315586 L8.47324948,9.90687035 Z M8.43031277,8.43031277 C10.0914299,6.76919564 10.0914299,4.07599264 8.43031277,2.4148755 C6.76919564,0.753758372 4.07599264,0.753758372 2.4148755,2.4148755 C0.753758372,4.07599264 0.753758372,6.76919564 2.4148755,8.43031277 C4.07599264,10.0914299 6.76919564,10.0914299 8.43031277,8.43031277 Z" id="Shape"></path>
                                </g>
                            </g>
                        </g>
                    </g>
                </g>
            </g>
        </g>
    </g>
</svg>