<svg width="18" height="16" viewBox="0 0 18 16" fill="none" xmlns="http://www.w3.org/2000/svg">
<path d="M9.857 1.4571L16.974 13.3191C17.0649 13.4708 17.1139 13.6439 17.1161 13.8207C17.1183 13.9975 17.0736 14.1718 16.9865 14.3257C16.8993 14.4796 16.773 14.6076 16.6202 14.6968C16.4675 14.7859 16.2938 14.833 16.117 14.8331H1.883C1.70615 14.833 1.53251 14.7859 1.37976 14.6968C1.22702 14.6076 1.10065 14.4796 1.01354 14.3257C0.926421 14.1718 0.881676 13.9975 0.883866 13.8207C0.886055 13.6439 0.9351 13.4708 1.026 13.3191L8.143 1.4571C8.2319 1.30924 8.35755 1.18691 8.50772 1.10198C8.65789 1.01705 8.82748 0.972412 9 0.972412C9.17252 0.972412 9.34211 1.01705 9.49228 1.10198C9.64245 1.18691 9.7681 1.30924 9.857 1.4571V1.4571Z" fill="#6E7EA4" stroke="#171F33" stroke-opacity="0.5"/>
<path d="M8.171 4.63013H9.93L9.784 9.53413H8.317L8.171 4.63113V4.63013ZM8 11.9531C8 11.3381 8.413 10.9381 9.054 10.9381C9.694 10.9381 10.107 11.3381 10.107 11.9531C10.107 12.5631 9.695 12.9631 9.054 12.9631C8.413 12.9631 8 12.5621 8 11.9521V11.9531Z" fill="black"/>
</svg>
