<?xml version="1.0" encoding="UTF-8"?>
<svg width="14px" height="15px" viewBox="0 0 14 15" version="1.1" xmlns="http://www.w3.org/2000/svg" xmlns:xlink="http://www.w3.org/1999/xlink">
    <!-- Generator: sketchtool 52.6 (67491) - http://www.bohemiancoding.com/sketch -->
    <title>EBA257C4-F4F7-4305-BCB2-D93CD2379A38</title>
    <desc>Created with sketchtool.</desc>
    <defs>
        <linearGradient x1="50%" y1="-2.48949813e-15%" x2="50%" y2="100%" id="linearGradient-1">
            <stop stop-color="#CCD2DC" offset="0%"></stop>
            <stop stop-color="#BDC3CE" offset="100%"></stop>
        </linearGradient>
        <path d="M6,12.9333333 C2.6862915,12.9333333 0,10.0679557 0,6.53333333 C0,2.99871093 2.6862915,0.133333333 6,0.133333333 C9.3137085,0.133333333 12,2.99871093 12,6.53333333 C12,10.0679557 9.3137085,12.9333333 6,12.9333333 Z M9.33415726,9.06418366 L6.56431324,6.10968337 L6.56431324,2.73946073 L5.47340415,2.73946073 L5.47340415,6.59167733 L8.56276805,9.88699882 L9.33415726,9.06418366 Z" id="path-2"></path>
        <filter x="-12.5%" y="-11.7%" width="125.0%" height="123.4%" filterUnits="objectBoundingBox" id="filter-3">
            <feOffset dx="0" dy="-1" in="SourceAlpha" result="shadowOffsetInner1"></feOffset>
            <feComposite in="shadowOffsetInner1" in2="SourceAlpha" operator="arithmetic" k2="-1" k3="1" result="shadowInnerInner1"></feComposite>
            <feColorMatrix values="0 0 0 0 0.584313725   0 0 0 0 0.615686275   0 0 0 0 0.670588235  0 0 0 1 0" type="matrix" in="shadowInnerInner1"></feColorMatrix>
        </filter>
    </defs>
    <g id="диз" stroke="none" stroke-width="1" fill="none" fill-rule="evenodd">
        <g id="ui" transform="translate(-92.000000, -175.000000)">
            <g id="Group-31" transform="translate(93.000000, 176.000000)">
                <g id="ic_time">
                    <use fill="url(#linearGradient-1)" fill-rule="evenodd" xlink:href="#path-2"></use>
                    <use fill="black" fill-opacity="1" filter="url(#filter-3)" xlink:href="#path-2"></use>
                    <path stroke-opacity="0.1" stroke="#000000" stroke-width="1" d="M6,13.4333333 C2.40267849,13.4333333 -0.5,10.3371429 -0.5,6.53333333 C-0.5,2.72952373 2.40267849,-0.366666667 6,-0.366666667 C9.59732151,-0.366666667 12.5,2.72952373 12.5,6.53333333 C12.5,10.3371429 9.59732151,13.4333333 6,13.4333333 Z M8.64879126,9.06418366 L6.06431324,6.30740711 L6.06431324,3.23946073 L5.97340415,3.23946073 L5.97340415,6.39395359 L8.56276805,9.15594175 L8.64879126,9.06418366 Z"></path>
                </g>
            </g>
        </g>
    </g>
</svg>