<svg width="24" height="24" viewBox="0 0 24 24" fill="none" xmlns="http://www.w3.org/2000/svg">
    <path d="M15.0514 8.53714L18.5846 5.00057H14.0006V3H21.9994V11.0006H20.0006V6.41486L16.4623 9.94971C18.8571 13.0869 18.408 17.544 15.4371 20.1446C12.4663 22.7434 7.98857 22.5926 5.19599 19.8017C2.40514 17.0109 2.25599 12.5331 4.85314 9.56057C7.45542 6.59143 11.9126 6.14229 15.0514 8.53714ZM10.5 20.0006C13.5377 20.0006 15.9994 17.5371 15.9994 14.4994C15.9994 11.4617 13.5377 9 10.5 9C7.46228 9 5.00057 11.4617 5.00057 14.4994C5.00057 17.5371 7.46228 20.0006 10.5 20.0006V20.0006Z" fill="#CFD3D7"/>
</svg>
