<svg width="24" height="24" viewBox="0 0 24 24" fill="none" xmlns="http://www.w3.org/2000/svg">
<g clip-path="url(#clip0)">
<path d="M23.5799 2C23.3279 1.888 23.0319 1.936 22.8259 2.12C21.24 3.548 19.906 2.806 17.896 1.414C16.848 0.686 15.856 0 14.812 0C13.484 0 12.568 0.726 12 1.208C11.432 0.728 10.516 0 9.18801 0C8.17002 0 7.18402 0.674 6.14003 1.39C4.09604 2.788 2.74204 3.534 1.17405 2.122C0.968051 1.936 0.672053 1.888 0.418055 2.002C0.164056 2.114 0.00205624 2.364 5.62536e-05 2.642C-0.00594372 4.092 0.468054 5.316 1.40605 6.282V10.154C1.40605 16.54 5.68403 22.224 11.806 23.974C11.87 23.992 11.934 24 12 24C12.066 24 12.13 23.992 12.194 23.974C18.316 22.224 22.594 16.54 22.594 10.154V6.28C23.5339 5.314 24.0059 4.09 23.9999 2.64C23.9999 2.362 23.8359 2.112 23.5799 2ZM21.188 10.154C21.188 15.848 17.42 20.922 12 22.564C6.58003 20.924 2.81204 15.848 2.81204 10.154V7.336C3.62604 7.782 4.59204 8.098 5.67603 8.276L5.67203 8.436C5.67203 10.764 7.56402 12.656 9.89201 12.656H14.11C16.436 12.656 18.33 10.764 18.33 8.436L18.324 8.276C19.408 8.098 20.374 7.782 21.188 7.336V10.154V10.154ZM7.07802 8.438V8.42C7.31002 8.432 7.54402 8.438 7.78202 8.438C9.56801 8.438 11.054 8.006 12 7.236C12.946 8.006 14.432 8.436 16.22 8.436C16.456 8.436 16.69 8.432 16.92 8.42L16.922 8.438C16.922 9.988 15.662 11.25 14.11 11.25H9.89001C8.34002 11.25 7.07802 9.99 7.07802 8.438V8.438ZM16.218 7.032C14.522 7.032 13.122 6.564 12.566 5.812C12.432 5.632 12.222 5.526 12 5.526C11.778 5.526 11.568 5.632 11.434 5.812C10.878 6.564 9.47801 7.032 7.78202 7.032C5.35803 7.032 2.44204 6.324 1.63005 4.044C3.55604 4.774 5.25803 3.696 6.93402 2.55C7.75402 1.988 8.60602 1.406 9.18801 1.406C10.062 1.406 10.676 1.926 11.168 2.346C11.33 2.484 11.47 2.602 11.614 2.698C11.848 2.852 12.152 2.852 12.386 2.698C12.53 2.602 12.67 2.484 12.832 2.346C13.324 1.926 13.938 1.406 14.812 1.406C15.418 1.406 16.232 1.972 17.096 2.57C18.776 3.734 20.446 4.792 22.366 4.05C21.552 6.33 18.628 7.03 16.218 7.03V7.032Z" fill="#CFD3D7" stroke="#CFD3D7" stroke-width="0.5"/>
</g>
<defs>
<clipPath id="clip0">
<rect width="24" height="24" fill="white"/>
</clipPath>
</defs>
</svg>
