<svg width="24" height="24" viewBox="0 0 24 24" fill="none" xmlns="http://www.w3.org/2000/svg">
<g clip-path="url(#clip0)">
<path d="M23.8852 17.7366C23.0169 15.8252 22.7411 12.2066 22.6573 10.221C22.5756 8.34362 22.0056 6.58043 21.0066 5.11978C19.221 2.51105 17.2413 1.44913 15.9073 0.876088C13.1901 -0.292029 10.0724 -0.292029 7.35321 0.876088C5.78419 1.54931 3.98839 2.53109 2.57259 4.70302C1.6226 6.15766 1.10163 7.91084 1.06282 9.77422L1.05873 10.0407C1.01583 12.2347 0.944323 15.9053 0.106693 17.8088C-0.175241 18.4479 0.120994 19.1933 0.766582 19.4718C1.07303 19.606 2.18442 19.6842 4.72796 19.8164C5.56559 19.8605 6.36032 19.9026 6.56666 19.9326L6.62795 19.9366H6.63408C6.70354 20.0088 6.77709 20.0769 6.84859 20.147C7.17547 20.4496 7.52278 20.7201 7.88031 20.9745V23.5933C7.88031 23.8177 8.06622 24 8.29504 24C8.52385 24 8.70977 23.8177 8.70977 23.5933V21.5355L8.83847 21.6197L9.23482 21.8802C9.39213 21.9864 9.54535 22.0965 9.69858 22.2088C10.3626 22.6896 11.047 23.1865 12.0133 23.1865C12.9776 23.1865 13.664 22.6896 14.326 22.2088C14.4792 22.0965 14.6324 21.9863 14.7897 21.8822L15.1861 21.6217L15.3373 21.5215V23.5933C15.3373 23.8177 15.5232 24 15.752 24C15.9808 24 16.1667 23.8177 16.1667 23.5933V20.9585C16.514 20.71 16.8573 20.4436 17.176 20.147C17.2495 20.0789 17.319 20.0068 17.3905 19.9366H17.3966C17.4232 19.9366 17.4518 19.9346 17.4783 19.9286C17.8338 19.8585 18.9411 19.7964 20.0137 19.7343C21.928 19.6261 22.8637 19.56 23.1762 19.4417C23.5093 19.3155 23.7687 19.0671 23.9015 18.7445C24.0384 18.4199 24.0323 18.0632 23.8852 17.7366ZM16.606 19.56C16.0441 20.0809 15.374 20.5217 14.7264 20.9445L14.3239 21.2089C14.1584 21.3191 13.9971 21.4374 13.8336 21.5556C13.2534 21.9763 12.7038 22.3731 12.0133 22.3731C11.3187 22.3731 10.7712 21.9763 10.1909 21.5556C10.0275 21.4354 9.8661 21.3191 9.70062 21.2089L9.29815 20.9445C8.65052 20.5197 7.98246 20.0829 7.41859 19.5579C7.32257 19.4678 7.22859 19.3736 7.14074 19.2774C7.12848 19.2614 7.11623 19.2494 7.10193 19.2374C5.60645 17.5784 5.40215 15.2101 5.38581 13.0321C6.79956 12.8398 11.6599 11.846 13.8765 7.08134C14.4792 7.38188 15.6907 8.02905 16.7571 8.84653C17.936 9.75418 18.6408 11.1828 18.6408 12.6695C18.6408 15.0858 18.4835 17.8088 16.606 19.5579V19.56ZM23.1354 18.4359C23.0884 18.5501 22.9944 18.6383 22.8759 18.6844C22.6246 18.7725 21.0883 18.8587 19.9667 18.9248C19.2578 18.9649 18.6061 19.0009 18.1076 19.041C19.2823 17.2498 19.4682 14.9416 19.4682 12.6695C19.4682 10.9103 18.6653 9.28333 17.2659 8.20738C15.7091 7.01121 13.9194 6.19373 13.8438 6.15967C13.7417 6.11358 13.6232 6.10957 13.5169 6.15165C13.4128 6.19172 13.329 6.27187 13.2861 6.37606C11.0081 11.85 5.00581 12.2607 4.94656 12.2627C4.72796 12.2768 4.55635 12.4551 4.55635 12.6695C4.55635 14.9536 4.7443 17.2738 5.93741 19.0691C5.63096 19.049 5.24279 19.029 4.7729 19.0049C3.51033 18.9388 1.39583 18.8286 1.10163 18.7304C0.866689 18.6303 0.764538 18.3658 0.866688 18.1314C1.76969 16.0796 1.84324 12.3088 1.88819 10.0567L1.89023 9.79025C1.92701 8.07714 2.40098 6.46822 3.26926 5.13982C4.56656 3.15221 6.23161 2.24457 7.68622 1.61944C10.193 0.543486 13.0675 0.543486 15.5742 1.61944C16.8143 2.1524 18.6551 3.14019 20.3201 5.5726C21.2334 6.90902 21.7564 8.52595 21.8299 10.2551C21.9382 12.7516 22.2508 16.1357 23.1293 18.0693C23.1824 18.1875 23.1865 18.3177 23.1354 18.4359Z" fill="#CFD3D7" stroke="#CFD3D7" stroke-width="0.5"/>
</g>
<defs>
<clipPath id="clip0">
<rect width="24" height="24" fill="white"/>
</clipPath>
</defs>
</svg>

